# xmcd
# 
# Track frame offsets:
#     150
#     16708
#     33485
#     51966
#     69496
#     83400
#     102100
#     116513
#     134255
#     149650
# 
# Disc length: 2288
# 
# Revision: 1
# Processed by: cddbd v1.5.2PL0 Copyright (c) Steve Scherf et al.
# Submitted via: fre:ac v1.0.31
# 
DISCID=7f08ee0a
DTITLE=Various Artist - Super Hits - tubes ANGLAIS
DYEAR=1998
DGENRE=Pop
TTITLE0=Wandue Project - King Of My Castel
TTITLE1=Marissa Turner - Don't Need To Know Your Name
TTITLE2=Jennifer Brown - Tuesday Afternoon
TTITLE3=Anita Ward feat BNY - Ring My Bell
TTITLE4=Five - Everybody Get Up
TTITLE5=Republika - Ready To Go
TTITLE6=Touché - Y.M.C.A
TTITLE7=4 The Cause - Ain't No Sunshine
TTITLE8=Modern Talking - Brothers Louie ( mix 98 feat Eric Singleton)
TTITLE9=Boney M vs Sash - Ma Baker
EXTD=
EXTT0=
EXTT1=
EXTT2=
EXTT3=
EXTT4=
EXTT5=
EXTT6=
EXTT7=
EXTT8=
EXTT9=
PLAYORDER=
